<svg xmlns="http://www.w3.org/2000/svg" width="500" height="500" fill="none"><g clip-path="url(#a)"><rect width="500" height="500" fill="#4F65F2" rx="250"/><path fill="#fff" d="m146.945 132.652 202.234 276.697-218.735-16.923-46.116-151.464 62.617-108.31ZM272.02 159.702l145.751 13.012c2.216.198 2.501 3.323.357 3.919l-179.797 49.944 33.689-66.875Z"/><path fill="#fff" d="m267.101 207.115-28.77 19.462-1.345-24.943 30.115 5.481Z"/><path fill="#fff" d="m84.328 240.962 182.773-33.847 26.798-56.03c.89-1.859-.318-4.041-2.366-4.275l-142.701-16.3a4.002 4.002 0 0 0-3.947 2.024L84.328 240.962ZM72.2 382.692l276.979 26.657 28.77 124.81-383.738 11.423-5.923-61.347 76.838-98.5a8 8 0 0 1 7.074-3.043Z"/></g><defs><clipPath id="a"><rect width="500" height="500" fill="#fff" rx="250"/></clipPath></defs></svg>