<svg xmlns="http://www.w3.org/2000/svg" width="500" height="473" fill="none"><path fill="#fff" d="M250 0c138.071 0 250 111.929 250 250 0 97.097-55.354 181.264-136.226 222.669l-14.595-63.319-139.975-191.514 28.371-5.254.756 13.995 179.797-49.944c2.144-.596 1.859-3.721-.357-3.919l-128.72-11.492 4.848-10.136c.89-1.859-.318-4.042-2.366-4.275l-142.701-16.3a4.001 4.001 0 0 0-3.946 2.023L84.328 240.962l44.821 147.211-56.949-5.481a8 8 0 0 0-7.074 3.043l-13.16 16.869C19.383 360.384 0 307.456 0 250 0 111.929 111.929 0 250 0Z"/></svg>